<svg width="511" height="137" viewBox="0 0 511 137" fill="none" xmlns="http://www.w3.org/2000/svg">
<path d="M97.6 6.80005L73 57L86.5 2.80005C90.3 3.80005 94 5.20005 97.6 6.80005Z" fill="#4E878E"/>
<path d="M60.9 59.1999L29.7 12.8999C26.5 15.1999 23.5 17.6999 20.7 20.4999L60.9 59.1999Z" fill="#4E878E"/>
<path d="M108 12.8999L76.7 59.1999L117 20.3999C114.2 17.5999 111.2 15.0999 108 12.8999Z" fill="#4E878E"/>
<path d="M58.0999 62.4001L12.9999 29.6001C10.7999 32.8001 8.79985 36.2001 7.09985 39.8001L58.0999 62.4001Z" fill="#4E878E"/>
<path d="M64.6 57L51.1 2.80005C47.3 3.80005 43.6 5.20005 40 6.80005L64.6 57Z" fill="#4E878E"/>
<path d="M73 80.2L86.5 134.5C90.3 133.5 94 132.1 97.6 130.5L73 80.2Z" fill="#4E878E"/>
<path d="M51.0999 134.5L64.5999 80.2L40.0999 130.4C43.5999 132.1 47.2999 133.4 51.0999 134.5Z" fill="#4E878E"/>
<path d="M56.7 66.5L3 51C2 54.7 1.3 58.6 1 62.6L56.7 66.5Z" fill="#4E878E"/>
<path d="M56.6999 70.8L0.899902 74.7C1.1999 78.7 1.8999 82.5 2.8999 86.3L56.6999 70.8Z" fill="#4E878E"/>
<path d="M68.7999 80.8999L62.8999 136.5C64.7999 136.7 66.7999 136.8 68.7999 136.8C70.7999 136.8 72.6999 136.7 74.6999 136.5L68.7999 80.8999Z" fill="#4E878E"/>
<path d="M68.7999 56.3L74.6999 0.8C72.7999 0.6 70.7999 0.5 68.7999 0.5C66.7999 0.5 64.8999 0.6 62.8999 0.8L68.7999 56.3Z" fill="#4E878E"/>
<path d="M79.5 74.8L124.7 107.7C126.9 104.5 128.9 101.1 130.6 97.5L79.5 74.8Z" fill="#4E878E"/>
<path d="M79.5 62.4L130.6 39.7C128.9 36.1 126.9 32.7 124.7 29.5L79.5 62.4Z" fill="#4E878E"/>
<path d="M58.1 74.8L7 97.5C8.7 101.1 10.7 104.5 12.9 107.7L58.1 74.8Z" fill="#4E878E"/>
<path d="M60.9 78.1001L20.7 116.9C23.5 119.7 26.5 122.2 29.7 124.5L60.9 78.1001Z" fill="#4E878E"/>
<path d="M76.7 78.1001L107.9 124.5C111.1 122.2 114.1 119.7 116.9 116.9L76.7 78.1001Z" fill="#4E878E"/>
<path d="M199.2 80.6C193.6 86.1 188.7 88.3001 182.2 88.3001C170.5 88.3001 161.4 78.6 161.4 66C161.4 53.4 170.3 44 182.1 44C190.1 44 195 47.7001 198.7 51.3001L199.1 51.7L202.7 48L202.2 47.6C196.8 42.6 191.3 39.3 182.1 39.3C167.5 39.3 156.2 51.1 156.2 66.1V66.2C156.2 81.4 167.3 92.9001 182 92.9001C192.1 92.9001 198 88.3001 202.6 83.9001L203.1 83.5L199.7 80.2L199.2 80.6Z" fill="black"/>
<path d="M216.4 38H211.6V92.1H216.4V38Z" fill="black"/>
<path d="M243.1 58.7C233.4 58.7 226.4 66.4 226.4 75.4V75.5C226.4 84.6 233.4 92.1 243 92.1C252.7 92.1 259.8 84.4 259.8 75.4V75.3C259.7 66.3 252.7 58.7 243.1 58.7ZM254.8 75.6C254.8 82.4 250 87.9 243 87.9C236.2 87.9 231.2 82.3 231.2 75.4V75.3C231.2 68.5 236 62.9 242.9 62.9C249.7 62.9 254.8 68.5 254.8 75.4V75.6Z" fill="black"/>
<path d="M280.1 73.1999C275.8 71.8999 271.9 70.6999 271.9 67.6999V67.5999C271.9 64.8999 274.3 62.8999 278.1 62.8999C281.2 62.8999 284.6 64.0999 287.6 65.9999L289.8 62.3999C286.5 60.1999 282.2 58.8999 278.3 58.8999C272 58.8999 267.4 62.5999 267.4 68.0999V68.1999C267.4 74.0999 273 75.7999 278 77.2999C282.2 78.4999 286 79.6999 286 82.8999V82.9999C286 86.0999 283.2 88.0999 279.4 88.0999C275.6 88.0999 271.8 86.5999 268.3 83.9999L265.9 87.3999C269.5 90.2999 274.6 92.0999 279.2 92.0999C285.6 92.0999 290.6 88.5999 290.6 82.4999V82.3999C290.4 76.5999 285.1 74.6999 280.1 73.1999Z" fill="black"/>
<path d="M327.6 75.7C327.6 66.3 322.1 58.7 312.7 58.7C303.8 58.7 297.3 66.1 297.3 75.4C297.3 85.4 304.5 92.1 313.3 92.1C319.4 92.1 323.3 89.7 326.5 86.1L323.5 83.4C320.9 86.1 317.8 87.9 313.4 87.9C307.8 87.9 302.8 84 302.1 77.2H327.5C327.6 76.6 327.6 76.1 327.6 75.7ZM302.1 73.5C302.8 67.3 307 62.7 312.5 62.7C318.8 62.7 322.2 67.7 322.7 73.5H302.1Z" fill="black"/>
<path d="M352.8 63.4001C352.3 64.7001 351.7 67.2 350.8 70.7C348.4 79.5 346.3 87 343.8 95.7C341.8 102.8 339.2 106.8 337.6 108.3C336.4 109.4 332.8 112.5 328.2 112.5C324 112.5 322.5 109.8 322.5 108.7C322.5 107.1 323.4 105.8 324.3 105.2C324.9 104.7 325.6 105 326.1 105.5C328 107.5 330.3 108.7 332.1 108.7C333.7 108.7 335.3 108.1 337.1 102.1C340.7 89.7001 343.5 76.2001 347.2 63.4001H340.7C339.9 62.7001 340.2 61.2 341.2 60.5H348C350 53.4 352.2 47.3 356.8 41.8C360.7 37.2 364.8 35.3 369.4 35.3C372.3 35.3 375.4 37.3 375.4 40.5C375.4 42.5 373.3 45 372 45C371.3 45 371 44.3001 370.9 43.7001C370.7 39.4001 368.5 38 366.5 38C364.8 38 362.7 39.6001 360.8 42.2001C357.2 47.5001 355.6 53 353.5 60.5H363.3C363.8 61.4 363.7 62.5001 362.5 63.4001H352.8Z" fill="#4E878E"/>
<path d="M389.9 57.6C391.2 57 393.3 57.8 393.8 58.8C392.6 61.7 385.8 79.1 383.3 86.2C382.8 87.5 383.2 88 383.9 88C385.2 88 387.5 86.7 392 82.7C392.5 82.7 393.1 83.1 393.1 83.7C389.8 88.1 384.2 92.5 379.9 92.5C378.1 92.5 377.6 91 377.6 90.4C377.6 89.9 377.8 89.1 378.4 87.3L381 80.2L380.8 80.1C375.2 87 367.2 92.4 363.5 92.4C361.3 92.4 360 90.2 360 88C360 86.2 361.7 79.9 366.9 72.8C370.7 67.6 374 64.5 377.3 62.7C380.4 61 382.3 60.4 384.4 60.4C385.3 60.4 385.8 60.6 386.3 60.9C386.6 61.1 387.5 61.8 387.9 62.5L389.9 57.6ZM376.3 66.6C371.3 71.1 366.5 81.4 366.5 86.9C366.5 87.8 367 88.4 367.7 88.4C368.5 88.4 370.8 87.4 375.3 83.3C381.3 77.7 384.6 71 385.8 66.3C385.3 64.8 383.9 63.5 381.9 63.5C380 63.5 378.7 64.4 376.3 66.6Z" fill="#4E878E"/>
<path d="M424.3 64.1001C424.3 67.2001 421.2 67.8001 420.4 67.8001C419.6 67.8001 419 67.3001 418.8 66.4001C418.6 64.4001 418.6 62.1001 416.1 62.1001C414.4 62.1001 411.9 63.7001 409.5 67.4001C406.9 71.2001 404.5 77.6001 404.2 83.7001C404 87.6001 405.7 88.8001 407.6 88.8001C410.2 88.8001 413.1 86.8001 416.1 84.0001C416.9 83.9001 417.4 84.6001 417.1 85.3001C414 89.3001 409.1 92.7001 404.1 92.7001C401 92.7001 398.2 90.4001 398.2 84.4001C398.2 79.3001 401.3 70.3001 408.2 64.1001C411.5 61.1001 414.9 59.5001 418.4 59.5001C422.5 59.4001 424.3 61.6001 424.3 64.1001Z" fill="#4E878E"/>
<path d="M441.1 63.6001L433.8 85.0001C433.3 86.5001 433.7 87.0001 434.3 87.0001C435.5 87.0001 440.7 82.9001 443.3 79.9001C444.1 79.9001 444.6 80.4001 444.4 81.3001C440 87.8001 432.6 92.6001 429.3 92.6001C428.2 92.6001 427.2 91.4001 427.2 90.5001C427.2 89.5001 427.5 88.4001 428.3 86.0001L435.9 63.6001H429.8C429.6 62.8001 429.9 61.7001 430.7 61.4001L437 60.3001L441.4 52.5001C442.2 52.0001 443.8 52.2001 444.4 53.0001L442.1 60.7001H450.7C451.2 61.5001 450.8 63.1001 449.8 63.6001H441.1Z" fill="#4E878E"/>
<path d="M477.9 69.3001C477.7 73.6001 475.4 81.2001 469.6 87.1001C464.7 92.1001 460.5 92.5001 458.4 92.5001C453.4 92.5001 450.1 88.8001 450.5 82.1001C450.8 77.2001 453.7 69.6001 459.1 64.5001C463.2 60.6001 466.7 59.4001 469.9 59.4001C475.5 59.4001 478.2 63.6001 477.9 69.3001ZM463.6 65.5001C459 71.6001 456 81.0001 455.7 85.1001C455.5 87.8001 456.6 90.1001 458.9 90.1001C460.6 90.1001 462.6 89.4001 465.1 86.0001C468.6 81.4001 472.2 71.0001 472.4 66.8001C472.5 64.4001 472 61.6001 469.3 61.6001C467.8 61.8001 465.9 62.5001 463.6 65.5001Z" fill="#4E878E"/>
<path d="M496.9 66.9001L493.5 76.8001H493.9C496.3 72.4001 500.1 66.1001 502.1 63.5001C503.9 61.1001 505.9 59.4001 507.8 59.4001C510.5 59.4001 510.9 62.1001 510.9 63.2001C510.9 64.3001 510.2 66.7001 509.3 67.9001C508.4 69.1001 507.1 69.2001 506.8 67.5001C506.4 65.5001 505.9 64.4001 505.2 64.4001C504.5 64.4001 503.6 65.2001 502.5 66.8001C497.7 72.9001 493.3 82.5001 489.1 91.5001C488.8 92.1001 488.4 92.4001 487.8 92.4001C486.9 92.4001 484.7 92.1001 485.2 90.4001C486.2 87.3001 491.2 73.4001 493.3 65.7001C493.5 64.8001 493.4 64.1001 492.7 64.1001C490.7 64.1001 488.5 66.3001 487.1 68.2001C486.3 68.4001 485.8 67.9001 485.8 66.9001C488.3 62.7001 491.3 59.4001 495.1 59.4001C499.1 59.4001 497.6 64.8001 496.9 66.9001Z" fill="#4E878E"/>
</svg>
