<svg width="40" height="40" viewBox="0 0 40 40" fill="none" xmlns="http://www.w3.org/2000/svg">
<path d="M7.32042 0H40L31.9297 8.07339H14.0652C12.3123 8.07339 10.8912 9.38778 10.8912 11.0092V20.9174C10.8912 22.5388 12.3123 23.8532 14.0652 23.8532H16.1559L8.08564 31.9266H7.32042C3.81448 31.9266 0.972347 29.2978 0.972347 26.055V5.87155C0.972347 2.62879 3.81448 0 7.32042 0Z" fill="black"/>
<path d="M8.07031 31.9266L0 40H32.409C35.915 40 38.7571 37.3712 38.7571 34.1284V13.945C38.7571 10.7022 35.915 8.07345 32.409 8.07345H31.9144L23.8441 16.1468H25.6642C27.4172 16.1468 28.8383 17.4612 28.8383 19.0826V28.9908C28.8383 30.6122 27.4172 31.9266 25.6642 31.9266H8.07031Z" fill="black"/>
</svg>
