<svg width="40" height="40" viewBox="0 0 40 40" fill="currentColor" xmlns="http://www.w3.org/2000/svg">
<path  d="M39.6239 23.8801C39.8707 22.6249 40 21.3275 40 20C40 18.0781 39.7289 16.2196 39.2229 14.4605C39.1599 14.6998 39.0774 14.9252 38.9756 15.1367C38.71 15.7344 38.3669 16.2878 37.9463 16.7969C37.5257 17.2839 37.0719 17.7487 36.585 18.1914C36.1201 18.6341 35.6885 19.11 35.29 19.6191C35.5557 19.9512 35.8545 20.2611 36.1865 20.5488L37.249 21.3457C37.6032 21.6113 37.9352 21.8991 38.2451 22.209C38.5771 22.4967 38.8538 22.8288 39.0752 23.2051C39.1416 23.3379 39.2855 23.4264 39.5068 23.4707C39.5402 23.6044 39.5793 23.7408 39.6239 23.8801ZM37.1075 30.3659C36.2631 30.8338 35.3917 31.2691 34.4932 31.6719C33.2314 32.2253 31.9144 32.6016 30.542 32.8008C30.4313 32.9557 30.2653 33.0775 30.0439 33.166C29.8447 33.2767 29.6123 33.3652 29.3467 33.4316C29.0811 33.498 28.7933 33.5534 28.4834 33.5977C28.1956 33.6419 27.93 33.6862 27.6865 33.7305C27.5758 33.6862 27.5094 33.6087 27.4873 33.498C27.4873 33.4095 27.432 33.3431 27.3213 33.2988C27.2992 33.5645 27.1774 33.6973 26.9561 33.6973C26.7568 33.7194 26.5023 33.6751 26.1924 33.5645C25.8825 33.4538 25.5615 33.2988 25.2295 33.0996C24.8975 32.9004 24.6097 32.7122 24.3662 32.5352C24.2555 32.7344 24.1117 32.9447 23.9346 33.166C23.7796 33.3874 23.6136 33.5423 23.4365 33.6309L22.7393 33.5312C22.6064 33.5091 22.4736 33.5645 22.3408 33.6973C22.1637 33.6087 22.0309 33.5091 21.9424 33.3984C21.8538 33.3099 21.7653 33.2103 21.6768 33.0996C21.5882 33.0111 21.4886 32.9336 21.3779 32.8672C21.2673 32.7786 21.1012 32.7012 20.8799 32.6348C20.9242 32.5241 20.891 32.3581 20.7803 32.1367C20.6696 31.8932 20.5146 31.7493 20.3154 31.7051C20.4261 31.528 20.3818 31.3066 20.1826 31.041C19.9834 30.7533 19.8285 30.4323 19.7178 30.0781C19.7399 29.9232 19.751 29.7682 19.751 29.6133C19.7731 29.4362 19.7952 29.2812 19.8174 29.1484C19.8617 28.9935 19.917 28.8607 19.9834 28.75C20.0498 28.6393 20.1605 28.5618 20.3154 28.5176C20.2933 28.2298 20.2048 27.9531 20.0498 27.6875C20.249 27.5326 20.3818 27.3444 20.4482 27.123C20.5146 26.8796 20.57 26.6361 20.6143 26.3926C20.6807 26.1491 20.7581 25.9167 20.8467 25.6953C20.9352 25.4518 21.0791 25.2526 21.2783 25.0977C21.234 25.0312 21.1898 24.9759 21.1455 24.9316C21.1012 24.8874 21.0791 24.8099 21.0791 24.6992C21.4111 24.1458 21.6436 23.681 21.7764 23.3047C21.9092 22.9062 22.0088 22.5299 22.0752 22.1758C22.1637 21.7995 22.2523 21.401 22.3408 20.9805C22.4294 20.5599 22.6064 20.0286 22.8721 19.3867C22.8499 18.9883 22.8942 18.6341 23.0049 18.3242C23.1156 18.0143 23.2262 17.7155 23.3369 17.4277C23.4697 17.1178 23.5693 16.7969 23.6357 16.4648C23.7021 16.1328 23.6911 15.7454 23.6025 15.3027C23.2262 15.347 22.9495 15.4798 22.7725 15.7012C22.6175 15.9225 22.5179 16.2214 22.4736 16.5977C22.2744 16.7747 22.0199 16.8633 21.71 16.8633C21.4001 16.8411 21.1234 16.8743 20.8799 16.9629C19.9502 16.5866 19.1755 16.0553 18.5557 15.3691C18.2498 15.018 17.9729 14.6349 17.725 14.22C17.5592 14.2224 17.3934 14.2292 17.2275 14.2402C16.2314 14.3066 15.335 14.3841 14.5381 14.4727C14.2946 14.207 14.0068 14.0853 13.6748 14.1074C13.3428 14.1074 12.9886 14.1628 12.6123 14.2734C12.2581 14.362 11.904 14.4616 11.5498 14.5723C11.1956 14.6608 10.8636 14.6829 10.5537 14.6387C10.3102 14.86 9.98926 15.015 9.59082 15.1035C9.19238 15.1699 8.77181 15.2253 8.3291 15.2695C8.30697 15.3802 8.3291 15.4577 8.39551 15.502C8.46191 15.5462 8.47298 15.6348 8.42871 15.7676C8.58366 15.9668 8.79395 16.1107 9.05957 16.1992L9.85645 16.3984C10.1442 16.4648 10.3988 16.5645 10.6201 16.6973C10.8415 16.8079 10.9854 16.9961 11.0518 17.2617C11.4502 17.2839 11.7933 17.3945 12.0811 17.5938C12.3688 17.7708 12.6123 17.9922 12.8115 18.2578C13.0107 18.5234 13.1546 18.8112 13.2432 19.1211C13.3317 19.4089 13.3649 19.6745 13.3428 19.918C13.4313 20.1393 13.5199 20.2279 13.6084 20.1836C13.7191 20.1393 13.8408 20.1947 13.9736 20.3496C14.0622 20.6816 14.2614 21.0358 14.5713 21.4121C14.9033 21.7663 15.1579 22.1536 15.335 22.5742C15.3792 23.2383 15.4124 23.8359 15.4346 24.3672C15.4788 24.8984 15.3903 25.4186 15.1689 25.9277C14.7926 26.9017 14.2503 27.776 13.542 28.5508C12.8337 29.3255 12.0257 30.0117 11.1182 30.6094C10.2327 31.1849 9.29199 31.694 8.2959 32.1367C7.2998 32.5573 6.31478 32.9115 5.34082 33.1992C5.25228 33.1771 5.1416 33.1771 5.00879 33.1992C4.99731 33.2015 4.98677 33.2028 4.97719 33.2032C8.64246 37.3703 14.0141 40 20 40C27.2507 40 33.6003 36.1416 37.1075 30.3659ZM4.90584 33.1217C4.90894 33.0902 4.92111 33.0496 4.94238 33C4.91539 33.024 4.88779 33.0468 4.85958 33.0683C4.87497 33.0861 4.89039 33.1039 4.90584 33.1217ZM1.64578 27.9578C0.586991 25.5191 0 22.8281 0 20C0 19.756 0.00436911 19.513 0.0130334 19.2712C0.189568 19.2565 0.30534 19.295 0.360352 19.3867C0.426758 19.4753 0.482096 19.5859 0.526367 19.7188C1.30111 20.0508 2.09798 20.2832 2.91699 20.416C3.75814 20.5488 4.64355 20.6374 5.57324 20.6816C5.94954 20.7702 6.27051 20.8587 6.53613 20.9473C6.80176 21.0358 7.06738 20.9915 7.33301 20.8145C7.77572 21.0579 8.31803 21.2793 8.95996 21.4785C9.60189 21.6777 10.2106 21.9212 10.7861 22.209C10.8304 22.209 10.8747 22.2201 10.9189 22.2422L11.1182 22.3086C11.1182 22.3971 11.1403 22.4635 11.1846 22.5078L11.3174 22.6406C11.3617 22.6628 11.3949 22.696 11.417 22.7402C11.4391 22.7845 11.4391 22.8509 11.417 22.9395C11.3506 23.1829 11.251 23.3932 11.1182 23.5703C10.9854 23.7253 10.8415 23.8802 10.6865 24.0352C10.5316 24.168 10.3766 24.3118 10.2217 24.4668C10.0889 24.6217 9.98926 24.8099 9.92285 25.0312C9.30306 25.3411 8.66113 25.6842 7.99707 26.0605C7.35514 26.4147 6.66895 26.7467 5.93848 27.0566C5.23014 27.3665 4.46647 27.61 3.64746 27.7871C3.01509 27.9276 2.34786 27.9845 1.64578 27.9578ZM1.53003 12.3144C1.96407 12.0721 2.41533 11.873 2.88379 11.7168C3.41504 11.5176 3.91309 11.3516 4.37793 11.2188C4.37793 11.1302 4.33366 11.0859 4.24512 11.0859C4.15658 11.0859 4.13444 11.0306 4.17871 10.9199C5.37402 10.6986 6.56934 10.3776 7.76465 9.95703C8.9821 9.53646 10.2217 9.16016 11.4834 8.82812C12.7451 8.49609 14.04 8.29688 15.3682 8.23047C16.6963 8.14193 18.0908 8.30794 19.5518 8.72852C19.6403 8.99414 19.762 9.2487 19.917 9.49219L20.336 10.1506C20.7884 9.96981 21.2575 9.81675 21.7432 9.69141C22.4294 9.51432 23.0934 9.35938 23.7354 9.22656C23.8682 9.27083 23.9346 9.27083 23.9346 9.22656C23.9346 9.18229 23.9899 9.20443 24.1006 9.29297C24.8975 9.04948 25.8161 8.81706 26.8564 8.5957C27.8968 8.35221 29.0036 8.26367 30.1768 8.33008C30.3317 8.24154 30.5199 8.19727 30.7412 8.19727C30.9626 8.17513 31.195 8.16406 31.4385 8.16406H32.1357C32.3571 8.14193 32.5452 8.09766 32.7002 8.03125C32.833 8.1862 33.0322 8.28581 33.2979 8.33008C33.5635 8.35221 33.8402 8.46289 34.1279 8.66211C34.2165 8.68425 34.2165 8.65104 34.1279 8.5625C34.0394 8.45182 34.0505 8.37435 34.1611 8.33008C34.4489 8.33008 34.7034 8.39648 34.9248 8.5293C35.1462 8.66211 35.3454 8.81706 35.5225 8.99414C35.7217 9.14909 35.8988 9.29297 36.0537 9.42578C36.2308 9.55859 36.4189 9.625 36.6182 9.625C36.8174 9.86849 37.0498 10.1009 37.3154 10.3223C37.4244 10.3977 37.5302 10.4748 37.6329 10.5534C34.2604 4.27152 27.629 0 20 0C11.6776 0 4.54246 5.08327 1.53003 12.3144ZM33.165 22.541C33.8734 22.6296 34.6481 22.9062 35.4893 23.3711C35.5335 23.681 35.4782 23.9245 35.3232 24.1016C35.1683 24.2786 34.9801 24.4447 34.7588 24.5996C34.5374 24.7324 34.3161 24.8763 34.0947 25.0312C33.8734 25.1862 33.7295 25.3965 33.6631 25.6621C33.0212 25.9056 32.4014 26.1712 31.8037 26.459C31.2061 26.7246 30.5973 27.0013 29.9775 27.2891C29.3577 27.5547 28.7158 27.7982 28.0518 28.0195C27.3877 28.2409 26.6572 28.4069 25.8604 28.5176C26.1481 27.6543 26.4469 26.7689 26.7568 25.8613C27.0667 24.9538 27.3656 24.1237 27.6533 23.3711C28.2288 23.2826 28.8044 23.1497 29.3799 22.9727C29.9554 22.7956 30.5531 22.6628 31.1729 22.5742C31.8148 22.4635 32.4788 22.4525 33.165 22.541ZM29.1143 13.3438C30.4424 13.056 31.7926 12.9342 33.165 12.9785C32.5231 13.7754 31.8037 14.5059 31.0068 15.1699C30.21 15.8118 29.2803 16.3431 28.2178 16.7637C27.9743 16.2767 27.609 15.8893 27.1221 15.6016C26.6572 15.3138 26.2035 14.9818 25.7607 14.6055C26.6683 14.0521 27.7861 13.6315 29.1143 13.3438Z" />
</svg>
